<?xml version="1.0" encoding="UTF-8" standalone="no"?>
<!-- Created with Inkscape (http://www.inkscape.org/) -->

<svg
   xmlns:dc="http://purl.org/dc/elements/1.1/"
   xmlns:cc="http://creativecommons.org/ns#"
   xmlns:rdf="http://www.w3.org/1999/02/22-rdf-syntax-ns#"
   xmlns:svg="http://www.w3.org/2000/svg"
   xmlns="http://www.w3.org/2000/svg"
   xmlns:sodipodi="http://sodipodi.sourceforge.net/DTD/sodipodi-0.dtd"
   xmlns:inkscape="http://www.inkscape.org/namespaces/inkscape"
   width="1920px"
   height="1080px"
   id="svg2993"
   version="1.1"
   inkscape:version="0.48.4 r9939"
   sodipodi:docname="debian_green_on_black.svg">
  <defs
     id="defs2995" />
  <sodipodi:namedview
     id="base"
     pagecolor="#ffffff"
     bordercolor="#666666"
     borderopacity="1.0"
     inkscape:pageopacity="0.0"
     inkscape:pageshadow="2"
     inkscape:zoom="0.35355339"
     inkscape:cx="1329.2214"
     inkscape:cy="459.15632"
     inkscape:document-units="px"
     inkscape:current-layer="layer1"
     showgrid="false"
     inkscape:window-width="1364"
     inkscape:window-height="766"
     inkscape:window-x="0"
     inkscape:window-y="0"
     inkscape:window-maximized="0" />
  <metadata
     id="metadata2998">
    <rdf:RDF>
      <cc:Work
         rdf:about="">
        <dc:format>image/svg+xml</dc:format>
        <dc:type
           rdf:resource="http://purl.org/dc/dcmitype/StillImage" />
        <dc:title></dc:title>
      </cc:Work>
    </rdf:RDF>
  </metadata>
  <g
     id="layer1"
     inkscape:label="Layer 1"
     inkscape:groupmode="layer">
    <rect
       style="fill:#000000;fill-rule:evenodd;stroke:none"
       id="rect3001"
       width="1920"
       height="1080"
       x="0"
       y="2.2093438e-14"
       inkscape:export-xdpi="90"
       inkscape:export-ydpi="90" />
    <g
       transform="matrix(2.5162901,0,0,-2.5162901,846.66653,676.99024)"
       inkscape:label="ink_ext_XXXXXX"
       id="g4046"
       style="fill:#00ff00;fill-opacity:1;fill-rule:nonzero;stroke:none"
       inkscape:export-filename="~/debian_green_on_black.png"
       inkscape:export-xdpi="90"
       inkscape:export-ydpi="90">
      <g
         transform="scale(0.1,0.1)"
         id="g4048"
         style="fill:#00ff00;fill-opacity:1;fill-rule:nonzero;stroke:none">
        <path
           id="path4050"
           style="fill:#00ff00;fill-opacity:1;fill-rule:nonzero;stroke:none"
           d="m 535.461,520.898 c -17.973,-0.25 3.398,-9.257 26.859,-12.867 6.489,5.071 12.36,10.168 17.602,15.149 -14.613,-3.571 -29.481,-3.649 -44.461,-2.282"
           inkscape:connector-curvature="0" />
        <path
           id="path4052"
           style="fill:#00ff00;fill-opacity:1;fill-rule:nonzero;stroke:none"
           d="m 631.91,544.941 c 10.711,14.77 18.5,30.938 21.238,47.661 -2.398,-11.922 -8.847,-22.211 -14.957,-33.071 -33.582,-21.152 -3.16,12.559 -0.019,25.367 -36.102,-45.468 -4.961,-27.257 -6.262,-39.957"
           inkscape:connector-curvature="0" />
        <path
           id="path4054"
           style="fill:#00ff00;fill-opacity:1;fill-rule:nonzero;stroke:none"
           d="m 667.512,637.582 c 2.179,32.359 -6.371,22.129 -9.242,9.777 3.351,-1.738 6,-22.808 9.242,-9.777"
           inkscape:connector-curvature="0" />
        <path
           id="path4056"
           style="fill:#00ff00;fill-opacity:1;fill-rule:nonzero;stroke:none"
           d="m 467.309,1079.88 c 9.589,-1.72 20.742,-3.04 19.16,-5.33 10.492,2.3 12.883,4.42 -19.16,5.33"
           inkscape:connector-curvature="0" />
        <path
           id="path4058"
           style="fill:#00ff00;fill-opacity:1;fill-rule:nonzero;stroke:none"
           d="m 486.469,1074.55 -6.77,-1.4 6.313,0.56 0.457,0.84"
           inkscape:connector-curvature="0" />
        <path
           id="path4060"
           style="fill:#00ff00;fill-opacity:1;fill-rule:nonzero;stroke:none"
           d="m 785.52,625.309 c 1.07,-29.059 -8.489,-43.161 -17.129,-68.118 l -15.532,-7.761 c -12.699,-24.68 1.243,-15.68 -7.871,-35.309 -19.84,-17.641 -60.199,-55.191 -73.109,-58.633 -9.449,0.211 6.383,11.133 8.453,15.41 -26.562,-18.238 -21.32,-27.378 -61.941,-38.457 l -1.18,2.641 c -100.191,-47.133 -239.352,46.27 -237.52,173.707 -1.07,-8.09 -3.043,-6.07 -5.261,-9.34 -5.168,65.571 30.281,131.43 90.07,158.321 58.488,28.949 127.039,17.07 168.941,-21.969 -23.011,30.14 -68.812,62.09 -123.089,59.097 C 457.18,794.059 407.441,760.27 390.84,723.59 363.602,706.441 360.441,657.48 348.57,648.52 332.59,531.148 378.602,480.449 456.441,420.801 c 12.239,-8.262 3.438,-9.512 5.098,-15.801 -25.859,12.109 -49.539,30.391 -69.008,52.77 10.328,-15.11 21.481,-29.821 35.891,-41.36 -24.383,8.262 -56.953,59.078 -66.461,61.149 42.027,-75.258 170.508,-131.969 237.809,-103.829 -31.141,-1.148 -70.688,-0.64 -105.668,12.29 -14.704,7.55 -34.68,23.218 -31.102,26.152 91.809,-34.301 186.672,-25.981 266.109,37.707 20.223,15.742 42.301,42.519 48.68,42.891 -9.609,-14.45 1.641,-6.95 -5.738,-19.7 20.129,32.481 -8.75,13.219 20.808,56.09 l 10.922,-15.039 c -4.062,26.969 33.489,59.711 29.668,102.348 8.621,13.043 9.61,-14.028 0.473,-44.028 12.68,33.278 3.348,38.629 6.598,66.09 3.519,-9.23 8.152,-19.043 10.519,-28.781 -8.269,32.16 8.461,54.16 12.609,72.852 -4.089,1.808 -12.75,-14.223 -14.718,23.769 0.281,16.5 4.59,8.649 6.242,12.711 -3.242,1.859 -11.742,14.508 -16.91,38.77 3.738,5.699 10.019,-14.782 15.109,-15.622 -3.269,19.29 -8.922,34 -9.16,48.801 -14.902,31.141 -5.27,-4.152 -17.359,13.367 -15.852,49.473 13.16,11.481 15.117,33.961 24.051,-34.828 37.75,-88.808 44.051,-111.168 -4.809,27.258 -12.559,53.668 -22.051,79.219 7.32,-3.07 -11.75,56.09 9.511,16.91 -22.71,83.52 -97.148,161.559 -165.648,198.18 8.367,-7.67 18.957,-17.3 15.156,-18.81 -34.058,20.28 -28.078,21.86 -32.957,30.43 -27.742,11.29 -29.562,-0.91 -47.941,-0.02 -52.301,27.74 -62.379,24.79 -110.508,42.17 l 2.188,-10.23 c -34.649,11.54 -40.379,-4.38 -77.821,-0.04 -2.277,1.78 11.992,6.44 23.75,8.15 -33.5,-4.42 -31.929,6.6 -64.711,-1.22 8.082,5.67 16.621,9.42 25.242,14.24 -27.32,-1.66 -65.218,-15.9 -53.519,-2.95 -44.563,-19.88 -123.699,-47.79 -168.109,-89.431 l -1.403,9.331 c -20.347,-24.429 -88.738,-72.96 -94.187,-104.6 l -5.442,-1.27 C 106.98,879.32 100.129,859 91.7305,840.551 77.8789,816.949 71.4297,831.469 73.3984,827.77 46.1602,772.539 32.6289,726.129 20.9414,688.07 29.2695,675.621 21.1406,613.121 24.2891,563.102 10.6094,316.051 197.672,76.1914 402.141,20.8203 432.109,10.1016 476.672,10.5117 514.582,9.41016 469.852,22.2109 464.07,16.1914 420.512,31.3906 389.082,46.1914 382.191,63.0898 359.93,82.3984 l 8.808,-15.5586 c -43.656,15.4415 -25.386,19.1211 -60.906,30.3711 l 9.406,12.2771 c -14.148,1.082 -37.476,23.852 -43.859,36.473 l -15.481,-0.609 c -18.597,22.949 -28.507,39.488 -27.789,52.308 l -5,-8.91 c -5.668,9.73 -68.429,86.07 -35.871,68.301 -6.047,5.531 -14.09,9 -22.808,24.847 l 6.629,7.571 c -15.668,20.16 -28.84,46 -27.84,54.613 8.363,-11.293 14.16,-13.402 19.902,-15.332 -39.57,98.18 -41.789,5.41 -71.7616,99.941 l 6.3398,0.508 c -4.8594,7.321 -7.8086,15.27 -11.7187,23.071 l 2.7578,27.5 c -28.4688,32.89 -7.9492,140.011 -3.8399,198.761 2.8516,23.891 23.7816,49.321 39.7036,89.199 l -9.704,1.668 c 18.543,32.344 105.864,129.883 146.301,124.864 19.59,24.609 -3.89,0.09 -7.719,6.289 43.032,44.531 56.559,31.461 85.602,39.469 31.316,18.589 -26.883,-7.25 -12.031,7.089 54.14,13.832 38.371,31.442 109,38.461 7.449,-4.238 -17.289,-6.55 -23.5,-12.05 45.109,22.07 142.75,17.05 206.16,-12.25 73.598,-34.391 156.269,-136.051 159.527,-231.7 l 3.723,-1 c -1.871,-38.019 5.82,-81.988 -7.52,-122.379 l 9.079,19.118"
           inkscape:connector-curvature="0" />
        <path
           id="path4062"
           style="fill:#00ff00;fill-opacity:1;fill-rule:nonzero;stroke:none"
           d="m 339.32,496.23 -2.519,-12.601 c 11.808,-16.027 21.179,-33.41 36.258,-45.949 -10.848,21.172 -18.911,29.922 -33.739,58.55"
           inkscape:connector-curvature="0" />
        <path
           id="path4064"
           style="fill:#00ff00;fill-opacity:1;fill-rule:nonzero;stroke:none"
           d="m 367.238,497.32 c -6.25,6.918 -9.949,15.239 -14.09,23.52 3.961,-14.57 12.071,-27.09 19.622,-39.82 l -5.532,16.3"
           inkscape:connector-curvature="0" />
        <path
           id="path4066"
           style="fill:#00ff00;fill-opacity:1;fill-rule:nonzero;stroke:none"
           d="m 861.281,604.711 -2.633,-6.621 c -4.839,-34.379 -15.289,-68.399 -31.308,-99.942 17.691,33.282 29.129,69.684 33.941,106.563"
           inkscape:connector-curvature="0" />
        <path
           id="path4068"
           style="fill:#00ff00;fill-opacity:1;fill-rule:nonzero;stroke:none"
           d="m 470.879,1088.5 c 12.152,4.45 29.859,2.44 42.75,5.37 -16.797,-1.41 -33.508,-2.25 -50.039,-4.38 l 7.289,-0.99"
           inkscape:connector-curvature="0" />
        <path
           id="path4070"
           style="fill:#00ff00;fill-opacity:1;fill-rule:nonzero;stroke:none"
           d="m 44.3203,861.68 c 2.8008,-25.918 -19.5,-35.981 4.9414,-18.891 13.0977,29.512 -5.1211,8.152 -4.9414,18.891"
           inkscape:connector-curvature="0" />
        <path
           id="path4072"
           style="fill:#00ff00;fill-opacity:1;fill-rule:nonzero;stroke:none"
           d="M 15.6016,741.719 C 21.2305,759 22.25,769.379 24.3984,779.379 8.83984,759.488 17.2383,755.25 15.6016,741.719"
           inkscape:connector-curvature="0" />
      </g>
    </g>
  </g>
</svg>
