<?xml version="1.0" encoding="UTF-8" standalone="no"?>
<!-- Created with Inkscape (http://www.inkscape.org/) -->

<svg
   xmlns:dc="http://purl.org/dc/elements/1.1/"
   xmlns:cc="http://creativecommons.org/ns#"
   xmlns:rdf="http://www.w3.org/1999/02/22-rdf-syntax-ns#"
   xmlns:svg="http://www.w3.org/2000/svg"
   xmlns="http://www.w3.org/2000/svg"
   xmlns:sodipodi="http://sodipodi.sourceforge.net/DTD/sodipodi-0.dtd"
   xmlns:inkscape="http://www.inkscape.org/namespaces/inkscape"
   width="1920"
   height="1080"
   viewBox="0 0 1920.0001 1080.0001"
   id="svg2"
   version="1.1"
   inkscape:version="0.91 r13725"
   sodipodi:docname="java.svg">
  <defs
     id="defs4" />
  <sodipodi:namedview
     id="base"
     pagecolor="#ffffff"
     bordercolor="#666666"
     borderopacity="1.0"
     inkscape:pageopacity="0.0"
     inkscape:pageshadow="2"
     inkscape:zoom="0.49497475"
     inkscape:cx="506.13637"
     inkscape:cy="555.49232"
     inkscape:document-units="px"
     inkscape:current-layer="layer1"
     showgrid="false"
     width="1980mm"
     units="px"
     showborder="true"
     inkscape:showpageshadow="false"
     inkscape:window-width="1362"
     inkscape:window-height="729"
     inkscape:window-x="0"
     inkscape:window-y="37"
     inkscape:window-maximized="0" />
  <metadata
     id="metadata7">
    <rdf:RDF>
      <cc:Work
         rdf:about="">
        <dc:format>image/svg+xml</dc:format>
        <dc:type
           rdf:resource="http://purl.org/dc/dcmitype/StillImage" />
        <dc:title></dc:title>
      </cc:Work>
    </rdf:RDF>
  </metadata>
  <g
     inkscape:label="Layer 1"
     inkscape:groupmode="layer"
     id="layer1"
     transform="translate(0,27.637908)">
    <rect
       style="fill:#d9cfce;fill-opacity:1;stroke:none"
       id="rect4136"
       width="1920.0002"
       height="1080.0001"
       x="-6.1035164e-05"
       y="-27.637917"
       inkscape:export-xdpi="90"
       inkscape:export-ydpi="90" />
    <g
       id="g4239"
       transform="matrix(1.2937544,0,0,1.2937544,783.00011,-609.13604)"
       inkscape:export-xdpi="90"
       inkscape:export-ydpi="90">
      <path
         id="path4169"
         d="m 88.1257,968.27392 c 0,0 -14.178,8.245 10.09,11.035 29.4,3.354 44.426,2.873 76.825,-3.259 0,0 8.518,5.341 20.414,9.967 -72.63,31.12798 -164.376,-1.803 -107.329,-17.743"
         style="fill:#3b2720;fill-opacity:1"
         inkscape:connector-curvature="0" />
      <path
         id="path4171"
         d="m 79.2507,927.65392 c 0,0 -15.902,11.771 8.384,14.283 31.406,3.24 56.208,3.505 99.125,-4.759 0,0 5.936,6.018 15.27,9.309 -87.814,25.678 -185.623,2.025 -122.779,-18.833"
         style="fill:#3b2720;fill-opacity:1"
         inkscape:connector-curvature="0" />
      <path
         id="path4173"
         d="m 154.0697,858.74892 c 17.896,20.604 -4.702,39.145 -4.702,39.145 0,0 45.441,-23.458 24.572,-52.833 -19.491,-27.394 -34.438,-41.005 46.479,-87.934 0,0 -127.013,31.722 -66.349,101.622"
         style="fill:#805141;fill-opacity:1"
         inkscape:connector-curvature="0" />
      <path
         id="path4175"
         d="m 250.1287,998.31892 c 0,0 10.492,8.64498 -11.555,15.33298 -41.923,12.7 -174.488,16.535 -211.314,0.506 -13.238,-5.759 11.587,-13.751 19.396,-15.42798 8.144,-1.766 12.798,-1.437 12.798,-1.437 -14.722,-10.371 -95.157,20.36398 -40.857,29.16598 148.084,24.015 269.943,-10.814 231.532,-28.13998"
         style="fill:#3b2720;fill-opacity:1"
         inkscape:connector-curvature="0" />
      <path
         id="path4177"
         d="m 94.9437,885.56692 c 0,0 -67.431,16.016 -23.879,21.832 18.389,2.462 55.047,1.905 89.193,-0.956 27.906,-2.354 55.927,-7.359 55.927,-7.359 0,0 -9.84,4.214 -16.959,9.075 -68.475,18.009 -200.756,9.631 -162.674,-8.79 32.206,-15.568 58.392,-13.802 58.392,-13.802"
         style="fill:#3b2720;fill-opacity:1"
         inkscape:connector-curvature="0" />
      <path
         id="path4179"
         d="m 215.9067,953.18092 c 69.608,-36.171 37.424,-70.931 14.96,-66.248 -5.506,1.146 -7.961,2.139 -7.961,2.139 0,0 2.044,-3.202 5.948,-4.588 44.441,-15.624 78.619,46.081 -14.346,70.52 0,10e-4 1.077,-0.962 1.399,-1.823"
         style="fill:#3b2720;fill-opacity:1"
         inkscape:connector-curvature="0" />
      <path
         id="path4181"
         d="m 173.9397,681.34892 c 0,0 38.55,38.563 -36.563,97.862 -60.233,47.568 -13.735,74.69 -0.025,105.678 -35.159,-31.722 -60.961,-59.647 -43.651,-85.637 25.407,-38.151 95.793,-56.648 80.239,-117.903"
         style="fill:#7f5041;fill-opacity:1"
         inkscape:connector-curvature="0" />
      <path
         id="path4183"
         d="m 101.7837,1051.1959 c 66.815,4.277 169.417,-2.373 171.847,-33.988 0,0 -4.671,11.985 -55.219,21.503 -57.028,10.732 -127.364,9.479 -169.081,2.601 10e-4,-10e-4 8.54,7.068 52.453,9.884"
         style="fill:#3b2720;fill-opacity:1"
         inkscape:connector-curvature="0" />
    </g>
  </g>
</svg>
