<?xml version="1.0" encoding="UTF-8" standalone="no"?>
<!-- Created with Inkscape (http://www.inkscape.org/) -->

<svg
   xmlns:dc="http://purl.org/dc/elements/1.1/"
   xmlns:cc="http://creativecommons.org/ns#"
   xmlns:rdf="http://www.w3.org/1999/02/22-rdf-syntax-ns#"
   xmlns:svg="http://www.w3.org/2000/svg"
   xmlns="http://www.w3.org/2000/svg"
   xmlns:sodipodi="http://sodipodi.sourceforge.net/DTD/sodipodi-0.dtd"
   xmlns:inkscape="http://www.inkscape.org/namespaces/inkscape"
   width="1366"
   height="768"
   viewBox="0 0 1366 768"
   id="svg2"
   version="1.1"
   inkscape:version="0.91 r13725"
   sodipodi:docname="java_logo-1366x768.svg">
  <defs
     id="defs4" />
  <sodipodi:namedview
     id="base"
     pagecolor="#ffffff"
     bordercolor="#666666"
     borderopacity="1.0"
     inkscape:pageopacity="0.0"
     inkscape:pageshadow="2"
     inkscape:zoom="0.24748738"
     inkscape:cx="667.78623"
     inkscape:cy="144.83376"
     inkscape:document-units="px"
     inkscape:current-layer="layer1"
     showgrid="false"
     units="px"
     inkscape:window-width="1362"
     inkscape:window-height="711"
     inkscape:window-x="0"
     inkscape:window-y="55"
     inkscape:window-maximized="0"
     inkscape:snap-global="false" />
  <metadata
     id="metadata7">
    <rdf:RDF>
      <cc:Work
         rdf:about="">
        <dc:format>image/svg+xml</dc:format>
        <dc:type
           rdf:resource="http://purl.org/dc/dcmitype/StillImage" />
        <dc:title />
      </cc:Work>
    </rdf:RDF>
  </metadata>
  <g
     inkscape:label="Layer 1"
     inkscape:groupmode="layer"
     id="layer1"
     transform="translate(0,-284.36214)">
    <rect
       style="fill:#d9d0d0;fill-opacity:1;fill-rule:evenodd;stroke:none;stroke-width:0.99898392px;stroke-linecap:butt;stroke-linejoin:miter;stroke-opacity:1"
       id="rect3352"
       width="1366"
       height="768"
       x="0"
       y="284.36215"
       inkscape:export-xdpi="90"
       inkscape:export-ydpi="90" />
    <g
       id="g4142">
      <path
         id="path4185"
         d="m 638.51522,761.0357 c 0,0 -12.95358,7.53297 9.21863,10.08202 26.86101,3.06435 40.58937,2.62489 70.19039,-2.97755 0,0 7.78238,4.87975 18.65105,9.10625 -66.35768,28.43978 -150.18049,-1.64729 -98.06007,-16.21072"
         style="fill:#3d261e;fill-opacity:1"
         inkscape:connector-curvature="0" />
      <path
         id="path4187"
         d="m 630.40666,723.92365 c 0,0 -14.5287,10.75445 7.65996,13.04952 28.69378,2.96019 51.35388,3.20231 90.56457,-4.34801 0,0 5.42336,5.49828 13.95128,8.50507 -80.23037,23.46045 -169.59259,1.85012 -112.17581,-17.20658"
         style="fill:#3d261e;fill-opacity:1"
         inkscape:connector-curvature="0" />
      <path
         id="path4189"
         d="m 698.76429,660.96928 c 16.35051,18.82464 -4.29593,35.76444 -4.29593,35.76444 0,0 41.51671,-21.43216 22.44996,-48.27034 -17.80775,-25.02825 -31.46392,-37.46381 42.46508,-80.34002 0,0 -116.04416,28.98249 -60.61911,92.84592"
         style="fill:#805141;fill-opacity:1"
         inkscape:connector-curvature="0" />
      <path
         id="path4191"
         d="m 786.52765,788.48602 c 0,0 9.58591,7.89842 -10.55712,14.00884 -38.30252,11.60323 -159.41921,15.10704 -193.06492,0.4623 -12.09476,-5.26165 10.58635,-12.56346 17.72096,-14.09564 7.44069,-1.61348 11.69277,-1.3129 11.69277,-1.3129 -13.45061,-9.47536 -86.93924,18.60537 -37.32859,26.64723 135.29547,21.94106 246.63071,-9.88011 211.5369,-25.70983"
         style="fill:#3d261e;fill-opacity:1"
         inkscape:connector-curvature="0" />
      <path
         id="path4193"
         d="m 644.74442,685.47128 c 0,0 -61.60766,14.63286 -21.81681,19.94659 16.80092,2.24938 50.29314,1.74048 81.49029,-0.87344 25.49604,-2.15071 51.09714,-6.72348 51.09714,-6.72348 0,0 -8.99022,3.85008 -15.49442,8.29129 -62.5615,16.45374 -183.4187,8.79926 -148.62547,-8.0309 29.42469,-14.22355 53.34927,-12.61006 53.34927,-12.61006"
         style="fill:#3d261e;fill-opacity:1"
         inkscape:connector-curvature="0" />
      <path
         id="path4195"
         d="m 755.26105,747.24614 c 63.59666,-33.04728 34.19206,-64.8054 13.66805,-60.52683 -5.03049,1.04704 -7.27348,1.95428 -7.27348,1.95428 0,0 1.86748,-2.92548 5.43433,-4.19178 40.60307,-14.27471 71.82946,42.10144 -13.10708,64.42989 0,9.2e-4 0.98399,-0.87892 1.27818,-1.66556"
         style="fill:#3d261e;fill-opacity:1"
         inkscape:connector-curvature="0" />
      <path
         id="path4197"
         d="m 716.91832,498.88955 c 0,0 35.22083,35.2327 -33.40541,89.41064 -55.03128,43.46002 -12.54885,68.23977 -0.0228,96.55164 -32.12266,-28.98248 -55.69641,-54.49588 -39.8813,-78.24138 23.21285,-34.85628 87.52032,-51.75588 73.30956,-107.7209"
         style="fill:#805141;fill-opacity:1"
         inkscape:connector-curvature="0" />
      <path
         id="path4199"
         d="m 650.99371,836.79656 c 61.04486,3.90764 154.78615,-2.16807 157.00629,-31.0528 0,0 -4.2676,10.94998 -50.45027,19.646 -52.10306,9.80519 -116.36485,8.6604 -154.47917,2.37638 9.1e-4,-9.1e-4 7.80249,6.45761 47.92316,9.03042"
         style="fill:#3d261e;fill-opacity:1"
         inkscape:connector-curvature="0" />
    </g>
  </g>
</svg>
