<?xml version="1.0" encoding="UTF-8" standalone="no"?>
<!-- Created with Inkscape (http://www.inkscape.org/) -->

<svg
   xmlns:dc="http://purl.org/dc/elements/1.1/"
   xmlns:cc="http://creativecommons.org/ns#"
   xmlns:rdf="http://www.w3.org/1999/02/22-rdf-syntax-ns#"
   xmlns:svg="http://www.w3.org/2000/svg"
   xmlns="http://www.w3.org/2000/svg"
   xmlns:sodipodi="http://sodipodi.sourceforge.net/DTD/sodipodi-0.dtd"
   xmlns:inkscape="http://www.inkscape.org/namespaces/inkscape"
   width="1920"
   height="1080"
   viewBox="0 0 1920.0001 1080.0001"
   id="svg2"
   version="1.1"
   inkscape:version="0.91 r13725"
   sodipodi:docname="java_logo-1920x1080.svg">
  <defs
     id="defs4" />
  <sodipodi:namedview
     id="base"
     pagecolor="#ffffff"
     bordercolor="#666666"
     borderopacity="1.0"
     inkscape:pageopacity="0.0"
     inkscape:pageshadow="2"
     inkscape:zoom="0.24748737"
     inkscape:cx="239.80268"
     inkscape:cy="233.8212"
     inkscape:document-units="px"
     inkscape:current-layer="layer1"
     showgrid="false"
     width="1980mm"
     units="px"
     showborder="true"
     inkscape:showpageshadow="false"
     inkscape:window-width="1366"
     inkscape:window-height="768"
     inkscape:window-x="0"
     inkscape:window-y="0"
     inkscape:window-maximized="0" />
  <metadata
     id="metadata7">
    <rdf:RDF>
      <cc:Work
         rdf:about="">
        <dc:format>image/svg+xml</dc:format>
        <dc:type
           rdf:resource="http://purl.org/dc/dcmitype/StillImage" />
        <dc:title />
      </cc:Work>
    </rdf:RDF>
  </metadata>
  <g
     inkscape:label="Layer 1"
     inkscape:groupmode="layer"
     id="layer1"
     transform="translate(0,27.637908)">
    <rect
       style="fill:#d9d0d0;fill-opacity:1;stroke:none"
       id="rect4136"
       width="1920.0002"
       height="1080.0001"
       x="-6.1035164e-05"
       y="-27.637899"
       inkscape:export-xdpi="90"
       inkscape:export-ydpi="90" />
    <g
       id="g4151">
      <path
         id="path4169"
         d="m 897.01312,643.5726 c 0,0 -18.34285,10.66701 13.05398,14.27658 38.03638,4.33926 57.47634,3.71696 99.3927,-4.21634 0,0 11.0202,6.90994 26.4107,12.89485 -93.96539,40.27196 -212.66219,-2.33264 -138.85738,-22.95509"
         style="fill:#3d261e;fill-opacity:1"
         inkscape:connector-curvature="0" />
      <path
         id="path4171"
         d="m 885.53105,591.0203 c 0,0 -20.57328,15.22878 10.84684,18.47869 40.63165,4.19177 72.71935,4.53461 128.24341,-6.15697 0,0 7.6797,7.78581 19.7556,12.04356 -113.60973,33.22102 -240.15055,2.61985 -158.84585,-24.36528"
         style="fill:#3d261e;fill-opacity:1"
         inkscape:connector-curvature="0" />
      <path
         id="path4173"
         d="m 982.32846,501.87415 c 23.15304,26.65652 -6.08323,50.64402 -6.08323,50.64402 0,0 58.78947,-30.34889 31.79017,-68.35293 -25.2166,-35.4411 -44.55435,-53.0504 60.1324,-113.765 0,0 -164.32365,41.04048 -85.83934,131.47391"
         style="fill:#805141;fill-opacity:1;stroke:none"
         inkscape:connector-curvature="0" />
      <path
         id="path4175"
         d="m 1106.6052,682.44346 c 0,0 13.5741,11.18448 -14.9493,19.83711 -54.2381,16.43068 -225.74463,21.39222 -273.38843,0.65464 -17.12672,-7.45074 14.99073,-17.79042 25.09366,-19.96002 10.53633,-2.28477 16.55747,-1.85913 16.55747,-1.85913 -19.04666,-13.41752 -123.10979,26.34599 -52.85893,37.73362 191.58433,31.06951 349.23993,-13.99066 299.54553,-36.40622"
         style="fill:#3d261e;fill-opacity:1"
         inkscape:connector-curvature="0" />
      <path
         id="path4177"
         d="m 905.83394,536.57006 c 0,0 -87.23915,20.72077 -30.89356,28.24525 23.79085,3.18522 71.2173,2.4646 115.39383,-1.23683 36.10349,-3.0455 72.35579,-9.52074 72.35579,-9.52074 0,0 -12.7305,5.45188 -21.9408,11.74082 -88.5898,23.29922 -259.72892,12.46015 -210.46017,-11.3721 41.66666,-20.14117 75.54491,-17.8564 75.54491,-17.8564"
         style="fill:#3d261e;fill-opacity:1"
         inkscape:connector-curvature="0" />
      <path
         id="path4179"
         d="m 1062.3304,624.04597 c 90.0556,-46.79639 48.4174,-91.76729 19.3545,-85.70864 -7.1234,1.48264 -10.2996,2.76734 -10.2996,2.76734 0,0 2.6445,-4.1426 7.6953,-5.93575 57.4957,-20.21362 101.7137,59.6175 -18.5602,91.23556 0,0.001 1.3934,-1.24459 1.81,-2.35851"
         style="fill:#3d261e;fill-opacity:1"
         inkscape:connector-curvature="0" />
      <path
         id="path4181"
         d="m 1008.0354,272.36212 c 0,0 49.8742,49.89105 -47.30358,126.6094 -77.92671,61.54131 -17.76972,96.63051 -0.0323,136.72137 -45.48711,-41.04047 -78.86857,-77.16856 -56.47368,-110.79324 32.87042,-49.35803 123.9326,-73.2886 103.8096,-152.53753"
         style="fill:#805141;fill-opacity:1;stroke:none"
         inkscape:connector-curvature="0" />
      <path
         id="path4183"
         d="m 914.68322,750.85328 c 86.44218,5.53339 219.18398,-3.07008 222.32778,-43.97212 0,0 -6.0431,15.50564 -71.4398,27.8196 -73.78022,13.88457 -164.77773,12.2635 -218.74928,3.36505 0.001,-0.001 11.04866,9.14426 67.8613,12.78747"
         style="fill:#3d261e;fill-opacity:1"
         inkscape:connector-curvature="0" />
    </g>
  </g>
</svg>
